# xmcd
#
# Track frame offsets: 
#        150
#        25067
#        49990
#        69942
#        96245
#        108967
#        127090
#        142900
#        164067
#        186160
#        201397
#        224205
#        242062
#        264815
#        284537
#        297460
#        321275
#
# Disc length: 4546 seconds
#
# Revision: 2
# Processed by: cddbd v1.5.2PL0 Copyright (c) Steve Scherf et al.
# Submitted via: ExactAudioCopy v0.95a5
#
DISCID=1511c011
DTITLE=Boyz II Men - k-The Ballad Collection
DYEAR=2000
DGENRE=R&B
TTITLE0=On Bended Knee
TTITLE1=Doin' Just Fine
TTITLE2=Please Don't Go
TTITLE3=End Of The Road
TTITLE4=It's So Hard To Say Goodbye To Yesterday
TTITLE5=Can You Stand The Rain
TTITLE6=Girl In The Life Magazine
TTITLE7=One Sweet Day (with Mariah Carey)
TTITLE8=Four Seasons Of Loneliness
TTITLE9=Water Runs Dry
TTITLE10=A Song For Mama
TTITLE11=I'll Make Love To You
TTITLE12=Your Home Is In My Heart (with Chante' Moore)
TTITLE13=I Will Get There
TTITLE14=Yesterday (Spanish Version)
TTITLE15=End Of The Road (Instrumental)
TTITLE16=So Amazing
EXTD=
EXTT0=
EXTT1=
EXTT2=
EXTT3=
EXTT4=
EXTT5=
EXTT6=
EXTT7=
EXTT8=
EXTT9=
EXTT10=
EXTT11=
EXTT12=
EXTT13=
EXTT14=
EXTT15=
EXTT16=
PLAYORDER=
